<svg width="240" height="190" viewBox="0 0 240 190" fill="none" xmlns="http://www.w3.org/2000/svg">
<rect width="240" height="190" rx="20" fill="white"/>
<path d="M36.976 162L34.416 157.552H33.024V162H31.2V150.88H35.04C35.8933 150.88 36.6133 151.029 37.2 151.328C37.7973 151.627 38.24 152.027 38.528 152.528C38.8267 153.029 38.976 153.589 38.976 154.208C38.976 154.933 38.7627 155.595 38.336 156.192C37.92 156.779 37.2747 157.179 36.4 157.392L39.152 162H36.976ZM33.024 156.096H35.04C35.7227 156.096 36.2347 155.925 36.576 155.584C36.928 155.243 37.104 154.784 37.104 154.208C37.104 153.632 36.9333 153.184 36.592 152.864C36.2507 152.533 35.7333 152.368 35.04 152.368H33.024V156.096ZM49.1494 157.376C49.1494 157.707 49.128 158.005 49.0854 158.272H42.3494C42.4027 158.976 42.664 159.541 43.1334 159.968C43.6027 160.395 44.1787 160.608 44.8614 160.608C45.8427 160.608 46.536 160.197 46.9414 159.376H48.9094C48.6427 160.187 48.1574 160.853 47.4534 161.376C46.76 161.888 45.896 162.144 44.8614 162.144C44.0187 162.144 43.2614 161.957 42.5894 161.584C41.928 161.2 41.4054 160.667 41.0214 159.984C40.648 159.291 40.4614 158.491 40.4614 157.584C40.4614 156.677 40.6427 155.883 41.0054 155.2C41.3787 154.507 41.896 153.973 42.5574 153.6C43.2294 153.227 43.9974 153.04 44.8614 153.04C45.6934 153.04 46.4347 153.221 47.0854 153.584C47.736 153.947 48.2427 154.459 48.6054 155.12C48.968 155.771 49.1494 156.523 49.1494 157.376ZM47.2454 156.8C47.2347 156.128 46.9947 155.589 46.5254 155.184C46.056 154.779 45.4747 154.576 44.7814 154.576C44.152 154.576 43.6134 154.779 43.1654 155.184C42.7174 155.579 42.4507 156.117 42.3654 156.8H47.2454ZM54.1124 160.368L56.6084 153.184H58.5444L55.1844 162H53.0084L49.6644 153.184H51.6164L54.1124 160.368ZM67.7631 157.376C67.7631 157.707 67.7418 158.005 67.6991 158.272H60.9631C61.0165 158.976 61.2778 159.541 61.7471 159.968C62.2165 160.395 62.7925 160.608 63.4751 160.608C64.4565 160.608 65.1498 160.197 65.5551 159.376H67.5231C67.2565 160.187 66.7711 160.853 66.0671 161.376C65.3738 161.888 64.5098 162.144 63.4751 162.144C62.6325 162.144 61.8751 161.957 61.2031 161.584C60.5418 161.2 60.0191 160.667 59.6351 159.984C59.2618 159.291 59.0751 158.491 59.0751 157.584C59.0751 156.677 59.2565 155.883 59.6191 155.2C59.9925 154.507 60.5098 153.973 61.1711 153.6C61.8431 153.227 62.6111 153.04 63.4751 153.04C64.3071 153.04 65.0485 153.221 65.6991 153.584C66.3498 153.947 66.8565 154.459 67.2191 155.12C67.5818 155.771 67.7631 156.523 67.7631 157.376ZM65.8591 156.8C65.8485 156.128 65.6085 155.589 65.1391 155.184C64.6698 154.779 64.0885 154.576 63.3951 154.576C62.7658 154.576 62.2271 154.779 61.7791 155.184C61.3311 155.579 61.0645 156.117 60.9791 156.8H65.8591ZM73.7661 153.04C74.4595 153.04 75.0781 153.184 75.6221 153.472C76.1768 153.76 76.6088 154.187 76.9181 154.752C77.2275 155.317 77.3821 156 77.3821 156.8V162H75.5741V157.072C75.5741 156.283 75.3768 155.68 74.9821 155.264C74.5875 154.837 74.0488 154.624 73.3661 154.624C72.6835 154.624 72.1395 154.837 71.7341 155.264C71.3395 155.68 71.1421 156.283 71.1421 157.072V162H69.3181V153.184H71.1421V154.192C71.4408 153.829 71.8195 153.547 72.2781 153.344C72.7475 153.141 73.2435 153.04 73.7661 153.04ZM87.4527 153.184V162H85.6287V160.96C85.3407 161.323 84.9621 161.611 84.4927 161.824C84.0341 162.027 83.5434 162.128 83.0207 162.128C82.3274 162.128 81.7034 161.984 81.1487 161.696C80.6047 161.408 80.1727 160.981 79.8527 160.416C79.5434 159.851 79.3887 159.168 79.3887 158.368V153.184H81.1967V158.096C81.1967 158.885 81.3941 159.493 81.7887 159.92C82.1834 160.336 82.7221 160.544 83.4047 160.544C84.0874 160.544 84.6261 160.336 85.0207 159.92C85.4261 159.493 85.6287 158.885 85.6287 158.096V153.184H87.4527ZM97.6994 157.376C97.6994 157.707 97.678 158.005 97.6354 158.272H90.8994C90.9527 158.976 91.214 159.541 91.6834 159.968C92.1527 160.395 92.7287 160.608 93.4114 160.608C94.3927 160.608 95.086 160.197 95.4914 159.376H97.4594C97.1927 160.187 96.7074 160.853 96.0034 161.376C95.31 161.888 94.446 162.144 93.4114 162.144C92.5687 162.144 91.8114 161.957 91.1394 161.584C90.478 161.2 89.9554 160.667 89.5714 159.984C89.198 159.291 89.0114 158.491 89.0114 157.584C89.0114 156.677 89.1927 155.883 89.5554 155.2C89.9287 154.507 90.446 153.973 91.1074 153.6C91.7794 153.227 92.5474 153.04 93.4114 153.04C94.2434 153.04 94.9847 153.221 95.6354 153.584C96.286 153.947 96.7927 154.459 97.1554 155.12C97.518 155.771 97.6994 156.523 97.6994 157.376ZM95.7954 156.8C95.7847 156.128 95.5447 155.589 95.0754 155.184C94.606 154.779 94.0247 154.576 93.3314 154.576C92.702 154.576 92.1634 154.779 91.7154 155.184C91.2674 155.579 91.0007 156.117 90.9154 156.8H95.7954Z" fill="#627193"/>
<path d="M44.742 123.774C44.742 124.675 44.508 125.525 44.04 126.322C43.5893 127.102 42.9133 127.752 42.012 128.272C41.128 128.775 40.0793 129.069 38.866 129.156V131.262H37.202V129.13C35.4687 128.974 34.0733 128.454 33.016 127.57C31.9587 126.669 31.4127 125.455 31.378 123.93H35.278C35.382 125.178 36.0233 125.932 37.202 126.192V121.226C35.954 120.914 34.9487 120.602 34.186 120.29C33.4233 119.978 32.7647 119.475 32.21 118.782C31.6553 118.089 31.378 117.144 31.378 115.948C31.378 114.44 31.9153 113.209 32.99 112.256C34.082 111.303 35.486 110.757 37.202 110.618V108.512H38.866V110.618C40.53 110.757 41.856 111.259 42.844 112.126C43.8493 112.993 44.4127 114.189 44.534 115.714H40.608C40.556 115.211 40.374 114.778 40.062 114.414C39.7673 114.033 39.3687 113.764 38.866 113.608V118.522C40.166 118.851 41.1887 119.172 41.934 119.484C42.6967 119.779 43.3553 120.273 43.91 120.966C44.4647 121.642 44.742 122.578 44.742 123.774ZM35.174 115.766C35.174 116.338 35.3473 116.806 35.694 117.17C36.0407 117.517 36.5433 117.803 37.202 118.028V113.53C36.578 113.617 36.084 113.851 35.72 114.232C35.356 114.613 35.174 115.125 35.174 115.766ZM38.866 126.244C39.5247 126.123 40.036 125.854 40.4 125.438C40.7813 125.022 40.972 124.519 40.972 123.93C40.972 123.358 40.79 122.899 40.426 122.552C40.062 122.205 39.542 121.919 38.866 121.694V126.244ZM60.0637 112.802L53.1477 129H49.4557L56.4237 113.218H47.5317V110.098H60.0637V112.802ZM61.9059 115.038C61.9925 113.305 62.5992 111.97 63.7259 111.034C64.8699 110.081 66.3692 109.604 68.2239 109.604C69.4892 109.604 70.5725 109.829 71.4739 110.28C72.3752 110.713 73.0512 111.311 73.5019 112.074C73.9699 112.819 74.2039 113.669 74.2039 114.622C74.2039 115.714 73.9179 116.641 73.3459 117.404C72.7912 118.149 72.1239 118.652 71.3439 118.912V119.016C72.3492 119.328 73.1292 119.883 73.6839 120.68C74.2559 121.477 74.5419 122.5 74.5419 123.748C74.5419 124.788 74.2992 125.715 73.8139 126.53C73.3459 127.345 72.6439 127.986 71.7079 128.454C70.7892 128.905 69.6799 129.13 68.3799 129.13C66.4212 129.13 64.8265 128.636 63.5959 127.648C62.3652 126.66 61.7152 125.204 61.6459 123.28H65.1819C65.2165 124.129 65.5025 124.814 66.0399 125.334C66.5945 125.837 67.3485 126.088 68.3019 126.088C69.1859 126.088 69.8619 125.845 70.3299 125.36C70.8152 124.857 71.0579 124.216 71.0579 123.436C71.0579 122.396 70.7285 121.651 70.0699 121.2C69.4112 120.749 68.3885 120.524 67.0019 120.524H66.2479V117.534H67.0019C69.4632 117.534 70.6939 116.711 70.6939 115.064C70.6939 114.319 70.4685 113.738 70.0179 113.322C69.5845 112.906 68.9519 112.698 68.1199 112.698C67.3052 112.698 66.6725 112.923 66.2219 113.374C65.7885 113.807 65.5372 114.362 65.4679 115.038H61.9059ZM89.7683 113.192H81.3443V117.638C81.7083 117.187 82.2283 116.823 82.9043 116.546C83.5803 116.251 84.2996 116.104 85.0623 116.104C86.449 116.104 87.5843 116.407 88.4683 117.014C89.3523 117.621 89.9936 118.401 90.3923 119.354C90.791 120.29 90.9903 121.295 90.9903 122.37C90.9903 124.363 90.4183 125.967 89.2743 127.18C88.1476 128.393 86.5356 129 84.4383 129C82.4623 129 80.885 128.506 79.7063 127.518C78.5276 126.53 77.8603 125.239 77.7043 123.644H81.2403C81.3963 124.337 81.743 124.892 82.2803 125.308C82.835 125.724 83.537 125.932 84.3863 125.932C85.409 125.932 86.1803 125.611 86.7003 124.97C87.2203 124.329 87.4803 123.479 87.4803 122.422C87.4803 121.347 87.2116 120.533 86.6743 119.978C86.1543 119.406 85.383 119.12 84.3603 119.12C83.6323 119.12 83.0256 119.302 82.5403 119.666C82.055 120.03 81.7083 120.515 81.5003 121.122H78.0163V109.994H89.7683V113.192ZM93.2147 125.308V122.448L101.717 110.28H105.955V122.136H108.243V125.308H105.955V129H102.315V125.308H93.2147ZM102.549 114.18L97.2187 122.136H102.549V114.18ZM112.198 129.182C111.54 129.182 110.994 128.983 110.56 128.584C110.144 128.168 109.936 127.657 109.936 127.05C109.936 126.443 110.144 125.941 110.56 125.542C110.994 125.126 111.54 124.918 112.198 124.918C112.84 124.918 113.368 125.126 113.784 125.542C114.2 125.941 114.408 126.443 114.408 127.05C114.408 127.657 114.2 128.168 113.784 128.584C113.368 128.983 112.84 129.182 112.198 129.182ZM117.678 124.892C119.342 123.505 120.668 122.353 121.656 121.434C122.644 120.498 123.467 119.527 124.126 118.522C124.785 117.517 125.114 116.529 125.114 115.558C125.114 114.674 124.906 113.981 124.49 113.478C124.074 112.975 123.433 112.724 122.566 112.724C121.699 112.724 121.032 113.019 120.564 113.608C120.096 114.18 119.853 114.969 119.836 115.974H116.3C116.369 113.894 116.985 112.317 118.146 111.242C119.325 110.167 120.815 109.63 122.618 109.63C124.594 109.63 126.111 110.159 127.168 111.216C128.225 112.256 128.754 113.634 128.754 115.35C128.754 116.702 128.39 117.993 127.662 119.224C126.934 120.455 126.102 121.529 125.166 122.448C124.23 123.349 123.008 124.441 121.5 125.724H129.17V128.74H116.326V126.036L117.678 124.892ZM130.632 113.4V110.046H136.898V129H133.154V113.4H130.632Z" fill="#00005C"/>
<g clip-path="url(#clip0_505_344)">
<path d="M42.2264 36.9104C42.6853 30.2557 48.2288 24.9999 55 24.9999C61.7712 24.9999 67.3148 30.2557 67.7737 36.9104C67.794 37.2057 67.7737 49.5061 55 49.5061C42.2263 49.506 42.206 37.2057 42.2264 36.9104Z" fill="#FFBA57"/>
<path d="M42.3722 58.7567L47.4208 64.124C47.6641 64.3826 47.6959 64.7844 47.4731 65.0834C47.3298 65.2755 47.0964 65.3792 46.8568 65.3792H45.4161L45.4161 74.2553C45.4161 74.6666 45.0826 75.0001 44.6713 75.0001H38.9669C38.5556 75.0001 38.2221 74.6666 38.2221 74.2553L38.2221 65.3792H36.7598C36.4048 65.3792 36.0905 65.1271 36.0253 64.7602C35.9834 64.5241 36.0678 64.283 36.2321 64.1084L41.2766 58.7455C41.4836 58.5254 41.8107 58.4455 42.1104 58.5694C42.2104 58.6108 42.298 58.6778 42.3722 58.7567Z" fill="#FC2B3A"/>
<path d="M55.5425 53.6214L60.5874 58.9847C60.7516 59.1593 60.8357 59.4004 60.7937 59.6364C60.7284 60.0033 60.4142 60.2551 60.0593 60.2551H58.597L58.5971 74.2552C58.5971 74.6665 58.2636 75 57.8523 75H52.1479C51.7365 75 51.403 74.6665 51.403 74.2552L51.403 60.2551H49.9407C49.5857 60.2551 49.2714 60.0031 49.2062 59.6361C49.1643 59.4001 49.2487 59.1589 49.413 58.9843L54.4518 53.6274C54.5183 53.5568 54.5959 53.4963 54.6841 53.4562C54.99 53.3171 55.3298 53.3953 55.5425 53.6214Z" fill="#FC2B3A"/>
<path d="M68.7234 48.8805L73.7683 54.2438C73.9324 54.4183 74.0167 54.6595 73.9745 54.8954C73.9092 55.2623 73.5949 55.5142 73.24 55.5142H71.7778L71.778 74.2553C71.778 74.6666 71.4445 75.0001 71.0331 75.0001H65.3287C64.9173 75.0001 64.5839 74.6666 64.5839 74.2553L64.5839 55.5142H63.1216C62.7667 55.5142 62.4524 55.2623 62.3871 54.8954C62.3451 54.6595 62.4294 54.4184 62.5935 54.2438L67.6385 48.8805C67.7792 48.7309 67.9756 48.646 68.181 48.646C68.3863 48.646 68.5827 48.7309 68.7234 48.8805Z" fill="#FC2B3A"/>
<path d="M45.9895 36.9106C46.4383 32.3298 50.3012 28.7504 55 28.7504C59.6878 28.7504 63.5436 32.3131 64.0072 36.8787C64.038 37.1831 64.0074 45.9796 55 45.9796C45.9893 45.9795 45.9607 37.2047 45.9895 36.9106Z" fill="#FFE27A"/>
<path d="M54.7165 41.2969C53.5446 41.2255 53.2226 40.5201 53.1628 40.3544C53.0775 40.0355 52.7872 39.8003 52.4413 39.8003C52.0283 39.8003 51.6936 40.1351 51.6936 40.5481C51.6936 40.608 51.7014 40.6661 51.7148 40.722L51.7145 40.7221C51.7152 40.7247 51.7166 40.7299 51.7185 40.7364C51.7277 40.7716 51.7385 40.8062 51.7525 40.8392C51.8904 41.2199 52.4436 42.4012 54.0733 42.7167V43.7097C54.0733 44.1218 54.4074 44.4559 54.8196 44.4559C55.2318 44.4559 55.5658 44.1218 55.5658 43.7097V42.7392C56.2801 42.6149 56.76 42.3027 57.06 42.0203C57.6182 41.495 57.9515 40.701 57.9515 39.8961C57.9515 39.14 57.6549 37.3485 54.9078 37.0453C54.3637 36.9853 53.9754 36.8121 53.7539 36.5306C53.5584 36.2821 53.5372 36.0074 53.5372 35.9009C53.5372 35.7697 53.5733 34.6186 54.8196 34.6186C55.6372 34.6186 55.9674 35.1386 56.0295 35.2517C56.1402 35.5263 56.4086 35.7204 56.7229 35.7204C57.1359 35.7204 57.4706 35.3857 57.4706 34.9727C57.4706 34.8499 57.4405 34.7344 57.388 34.6322L57.3884 34.632C57.1781 34.1747 56.5841 33.4595 55.5658 33.2132V32.2117C55.5658 31.7996 55.2318 31.4655 54.8196 31.4655C54.4074 31.4655 54.0733 31.7995 54.0733 32.2117V33.2102C52.6003 33.5599 52.0447 34.9342 52.0447 35.9008C52.0447 36.9756 52.7517 38.3087 54.7441 38.5286C56.4589 38.7179 56.4589 39.6046 56.4589 39.896C56.4589 40.2056 56.3482 40.6406 56.0371 40.9332C55.7432 41.21 55.2991 41.3324 54.7165 41.2969Z" fill="#FC2B3A"/>
</g>
<defs>
<clipPath id="clip0_505_344">
<rect width="50" height="50" fill="white" transform="translate(30 25)"/>
</clipPath>
</defs>
</svg>
