<svg width="250" height="100" viewBox="0 0 250 100" fill="none" xmlns="http://www.w3.org/2000/svg">
<rect width="250" height="100" rx="10" fill="white"/>
<path d="M36.26 29.04H31.38V43H36.26C40.72 43 43.62 40.26 43.62 36.04C43.62 31.8 40.72 29.04 36.26 29.04ZM34.18 40.62V31.4H36.16C39.1 31.4 40.76 33.14 40.76 36.04C40.76 38.94 39.1 40.62 36.16 40.62H34.18ZM48.2159 37.48C48.2159 35.34 49.2159 34.7 50.8759 34.7H51.6159V31.76C50.0759 31.76 48.9159 32.5 48.2159 33.64V31.92H45.4159V43H48.2159V37.48ZM57.9619 34.04C59.4019 34.04 60.5619 34.96 60.6019 36.42H55.3419C55.5619 34.9 56.6219 34.04 57.9619 34.04ZM63.2219 39.52H60.2019C59.8419 40.26 59.1819 40.86 57.9819 40.86C56.5819 40.86 55.4619 39.94 55.3219 38.3H63.4219C63.4819 37.94 63.5019 37.58 63.5019 37.22C63.5019 33.92 61.2419 31.74 58.0419 31.74C54.7619 31.74 52.4819 33.96 52.4819 37.46C52.4819 40.94 54.8219 43.18 58.0419 43.18C60.7819 43.18 62.6219 41.56 63.2219 39.52ZM64.5256 37.42C64.5256 40.88 66.7656 43.18 69.5656 43.18C71.3256 43.18 72.5856 42.34 73.2456 41.38V43H76.0656V31.92H73.2456V33.5C72.5856 32.58 71.3656 31.74 69.5856 31.74C66.7656 31.74 64.5256 33.96 64.5256 37.42ZM73.2456 37.46C73.2456 39.56 71.8456 40.72 70.3056 40.72C68.8056 40.72 67.3856 39.52 67.3856 37.42C67.3856 35.32 68.8056 34.2 70.3056 34.2C71.8456 34.2 73.2456 35.36 73.2456 37.46ZM94.0003 43H96.8003V36.5C96.8003 33.44 94.9203 31.76 92.2603 31.76C90.6403 31.76 89.1803 32.62 88.4603 33.88C87.7003 32.5 86.2803 31.76 84.5603 31.76C83.1803 31.76 82.0003 32.34 81.3003 33.26V31.92H78.5003V43H81.3003V36.88C81.3003 35.12 82.2803 34.2 83.8003 34.2C85.2803 34.2 86.2603 35.12 86.2603 36.88V43H89.0603V36.88C89.0603 35.12 90.0403 34.2 91.5403 34.2C93.0203 34.2 94.0003 35.12 94.0003 36.88V43ZM31.38 57.04V71H38.78V68.78H34.18V57.04H31.38ZM50.9597 65.46C50.9597 61.96 48.4597 59.74 45.2597 59.74C42.0597 59.74 39.5597 61.96 39.5597 65.46C39.5597 68.94 41.9797 71.18 45.1797 71.18C48.3997 71.18 50.9597 68.94 50.9597 65.46ZM42.3997 65.46C42.3997 63.24 43.7397 62.18 45.2197 62.18C46.6997 62.18 48.0797 63.24 48.0797 65.46C48.0797 67.66 46.6597 68.74 45.1797 68.74C43.6797 68.74 42.3997 67.66 42.3997 65.46ZM51.5336 59.92L55.6136 71H59.0136L63.1136 59.92H60.1336L57.3336 68.42L54.5336 59.92H51.5336ZM69.1462 62.04C70.5862 62.04 71.7462 62.96 71.7862 64.42H66.5262C66.7462 62.9 67.8062 62.04 69.1462 62.04ZM74.4062 67.52H71.3862C71.0262 68.26 70.3662 68.86 69.1662 68.86C67.7662 68.86 66.6462 67.94 66.5062 66.3H74.6062C74.6662 65.94 74.6862 65.58 74.6862 65.22C74.6862 61.92 72.4262 59.74 69.2262 59.74C65.9462 59.74 63.6662 61.96 63.6662 65.46C63.6662 68.94 66.0062 71.18 69.2262 71.18C71.9662 71.18 73.8062 69.56 74.4062 67.52ZM89.6756 71H92.4756V57.04H89.6756V62.78H83.6956V57.04H80.8956V71H83.6956V65.06H89.6756V71ZM105.632 65.46C105.632 61.96 103.132 59.74 99.9316 59.74C96.7316 59.74 94.2316 61.96 94.2316 65.46C94.2316 68.94 96.6516 71.18 99.8516 71.18C103.072 71.18 105.632 68.94 105.632 65.46ZM97.0716 65.46C97.0716 63.24 98.4116 62.18 99.8916 62.18C101.372 62.18 102.752 63.24 102.752 65.46C102.752 67.66 101.332 68.74 99.8516 68.74C98.3516 68.74 97.0716 67.66 97.0716 65.46ZM117.845 59.92H115.025V66.02C115.025 67.8 114.065 68.76 112.545 68.76C111.065 68.76 110.085 67.8 110.085 66.02V59.92H107.285V66.42C107.285 69.46 109.145 71.14 111.725 71.14C113.105 71.14 114.325 70.54 115.025 69.6V71H117.845V59.92ZM128.908 67.84C128.828 63.78 122.688 65.04 122.688 63.02C122.688 62.38 123.228 61.96 124.268 61.96C125.368 61.96 126.048 62.54 126.128 63.4H128.808C128.648 61.2 127.028 59.74 124.348 59.74C121.608 59.74 119.968 61.22 119.968 63.06C119.968 67.12 126.228 65.86 126.228 67.84C126.228 68.48 125.628 68.98 124.528 68.98C123.408 68.98 122.628 68.34 122.528 67.5H119.708C119.828 69.56 121.768 71.18 124.548 71.18C127.248 71.18 128.908 69.74 128.908 67.84ZM135.667 62.04C137.107 62.04 138.267 62.96 138.307 64.42H133.047C133.267 62.9 134.327 62.04 135.667 62.04ZM140.927 67.52H137.907C137.547 68.26 136.887 68.86 135.687 68.86C134.287 68.86 133.167 67.94 133.027 66.3H141.127C141.187 65.94 141.207 65.58 141.207 65.22C141.207 61.92 138.947 59.74 135.747 59.74C132.467 59.74 130.187 61.96 130.187 65.46C130.187 68.94 132.527 71.18 135.747 71.18C138.487 71.18 140.327 69.56 140.927 67.52Z" fill="#00005C"/>
<g clip-path="url(#clip0_505_250)">
<path d="M207.124 31H182.876C177.974 31 174 34.9739 174 39.876V64.124C174 69.0261 177.974 73.0001 182.876 73.0001H207.124C212.026 73.0001 216 69.0261 216 64.124V39.876C216 34.9739 212.026 31 207.124 31Z" fill="url(#paint0_linear_505_250)"/>
<path fill-rule="evenodd" clip-rule="evenodd" d="M189.948 44.1252C188.556 44.1252 187.165 44.6617 186.099 45.7317C183.967 47.8718 183.967 51.3161 186.099 53.4563L186.868 54.2305L194.565 61.9552L202.263 54.2305L203.032 53.4563C205.164 51.3161 205.164 47.8718 203.032 45.7317C200.9 43.5915 197.467 43.5915 195.334 45.7317L194.565 46.5042L193.796 45.7317C192.73 44.6617 191.339 44.1252 189.948 44.1252ZM189.972 45.4429C190.03 45.4421 190.087 45.4528 190.141 45.4744C190.195 45.4961 190.244 45.5281 190.285 45.5689C190.326 45.6096 190.359 45.6581 190.381 45.7116C190.404 45.765 190.415 45.8224 190.415 45.8804C190.415 45.9384 190.404 45.9958 190.381 46.0493C190.359 46.1028 190.326 46.1513 190.285 46.192C190.244 46.2327 190.195 46.2648 190.141 46.2864C190.087 46.308 190.03 46.3187 189.972 46.3179C188.799 46.3179 187.716 46.9428 187.13 47.9585C186.543 48.9744 186.543 50.224 187.13 51.2397C187.161 51.2896 187.182 51.3452 187.192 51.4034C187.201 51.4615 187.199 51.521 187.185 51.5782C187.17 51.6354 187.145 51.6892 187.11 51.7363C187.074 51.7834 187.03 51.8228 186.979 51.8523C186.928 51.8818 186.871 51.9007 186.813 51.9079C186.754 51.915 186.695 51.9102 186.638 51.8939C186.582 51.8775 186.529 51.8499 186.483 51.8127C186.438 51.7755 186.4 51.7294 186.372 51.6772C185.63 50.392 185.63 48.8064 186.372 47.521C187.115 46.2358 188.487 45.4429 189.972 45.4429Z" fill="white"/>
</g>
<defs>
<linearGradient id="paint0_linear_505_250" x1="176.733" y1="31.5566" x2="213.22" y2="71.761" gradientUnits="userSpaceOnUse">
<stop stop-color="#FF1679"/>
<stop offset="1" stop-color="#FF770B"/>
</linearGradient>
<clipPath id="clip0_505_250">
<rect width="42" height="42" fill="white" transform="translate(174 31)"/>
</clipPath>
</defs>
</svg>
