<svg width="240" height="240" viewBox="0 0 240 240" fill="none" xmlns="http://www.w3.org/2000/svg">
<rect width="240" height="240" rx="10" fill="white"/>
<path d="M66.3926 186.588H64.9646V193H63.3546V186.588H62.4446V185.286H63.3546V184.74C63.3546 183.853 63.5879 183.209 64.0546 182.808C64.5306 182.397 65.2726 182.192 66.2806 182.192V183.522C65.7953 183.522 65.4546 183.615 65.2586 183.802C65.0626 183.979 64.9646 184.292 64.9646 184.74V185.286H66.3926V186.588ZM69.263 186.406C69.4964 186.014 69.8044 185.711 70.187 185.496C70.579 185.272 71.041 185.16 71.573 185.16V186.812H71.167C70.5417 186.812 70.0657 186.971 69.739 187.288C69.4217 187.605 69.263 188.156 69.263 188.94V193H67.667V185.286H69.263V186.406ZM76.2461 193.126C75.5181 193.126 74.8601 192.963 74.2721 192.636C73.6841 192.3 73.2221 191.833 72.8861 191.236C72.5501 190.629 72.3821 189.929 72.3821 189.136C72.3821 188.352 72.5547 187.657 72.9001 187.05C73.2454 186.443 73.7167 185.977 74.3141 185.65C74.9114 185.323 75.5787 185.16 76.3161 185.16C77.0534 185.16 77.7207 185.323 78.3181 185.65C78.9154 185.977 79.3867 186.443 79.7321 187.05C80.0774 187.657 80.2501 188.352 80.2501 189.136C80.2501 189.92 80.0727 190.615 79.7181 191.222C79.3634 191.829 78.8781 192.3 78.2621 192.636C77.6554 192.963 76.9834 193.126 76.2461 193.126ZM76.2461 191.74C76.6567 191.74 77.0394 191.642 77.3941 191.446C77.7581 191.25 78.0521 190.956 78.2761 190.564C78.5001 190.172 78.6121 189.696 78.6121 189.136C78.6121 188.576 78.5047 188.105 78.2901 187.722C78.0754 187.33 77.7907 187.036 77.4361 186.84C77.0814 186.644 76.6987 186.546 76.2881 186.546C75.8774 186.546 75.4947 186.644 75.1401 186.84C74.7947 187.036 74.5194 187.33 74.3141 187.722C74.1087 188.105 74.0061 188.576 74.0061 189.136C74.0061 189.967 74.2161 190.611 74.6361 191.068C75.0654 191.516 75.6021 191.74 76.2461 191.74ZM91.0258 185.16C91.6325 185.16 92.1738 185.286 92.6498 185.538C93.1351 185.79 93.5131 186.163 93.7838 186.658C94.0638 187.153 94.2038 187.75 94.2038 188.45V193H92.6218V188.688C92.6218 187.997 92.4491 187.47 92.1038 187.106C91.7585 186.733 91.2871 186.546 90.6898 186.546C90.0925 186.546 89.6165 186.733 89.2618 187.106C88.9165 187.47 88.7438 187.997 88.7438 188.688V193H87.1618V188.688C87.1618 187.997 86.9891 187.47 86.6438 187.106C86.2985 186.733 85.8271 186.546 85.2298 186.546C84.6325 186.546 84.1565 186.733 83.8018 187.106C83.4565 187.47 83.2838 187.997 83.2838 188.688V193H81.6878V185.286H83.2838V186.168C83.5451 185.851 83.8765 185.603 84.2778 185.426C84.6791 185.249 85.1085 185.16 85.5658 185.16C86.1818 185.16 86.7325 185.291 87.2178 185.552C87.7031 185.813 88.0765 186.191 88.3378 186.686C88.5711 186.219 88.9351 185.851 89.4298 185.58C89.9245 185.3 90.4565 185.16 91.0258 185.16ZM105.849 184.026L101.957 193H100.347L104.281 184.194H99.1014V182.836H105.849V184.026ZM113.655 184.166H108.965V186.952C109.161 186.691 109.451 186.471 109.833 186.294C110.225 186.117 110.641 186.028 111.079 186.028C111.863 186.028 112.498 186.196 112.983 186.532C113.478 186.868 113.828 187.293 114.033 187.806C114.248 188.319 114.355 188.861 114.355 189.43C114.355 190.121 114.22 190.737 113.949 191.278C113.688 191.81 113.291 192.23 112.759 192.538C112.237 192.846 111.593 193 110.827 193C109.81 193 108.993 192.748 108.377 192.244C107.761 191.74 107.393 191.073 107.271 190.242H108.825C108.928 190.681 109.157 191.031 109.511 191.292C109.866 191.544 110.309 191.67 110.841 191.67C111.504 191.67 111.999 191.469 112.325 191.068C112.661 190.667 112.829 190.135 112.829 189.472C112.829 188.8 112.661 188.287 112.325 187.932C111.989 187.568 111.495 187.386 110.841 187.386C110.384 187.386 109.997 187.503 109.679 187.736C109.371 187.96 109.147 188.268 109.007 188.66H107.495V182.766H113.655V184.166ZM115.667 184.25V182.794H118.579V193H116.969V184.25H115.667ZM125.934 186.406C126.167 186.014 126.475 185.711 126.858 185.496C127.25 185.272 127.712 185.16 128.244 185.16V186.812H127.838C127.213 186.812 126.737 186.971 126.41 187.288C126.093 187.605 125.934 188.156 125.934 188.94V193H124.338V185.286H125.934V186.406ZM136.641 188.954C136.641 189.243 136.622 189.505 136.585 189.738H130.691C130.738 190.354 130.966 190.849 131.377 191.222C131.788 191.595 132.292 191.782 132.889 191.782C133.748 191.782 134.354 191.423 134.709 190.704H136.431C136.198 191.413 135.773 191.997 135.157 192.454C134.55 192.902 133.794 193.126 132.889 193.126C132.152 193.126 131.489 192.963 130.901 192.636C130.322 192.3 129.865 191.833 129.529 191.236C129.202 190.629 129.039 189.929 129.039 189.136C129.039 188.343 129.198 187.647 129.515 187.05C129.842 186.443 130.294 185.977 130.873 185.65C131.461 185.323 132.133 185.16 132.889 185.16C133.617 185.16 134.266 185.319 134.835 185.636C135.404 185.953 135.848 186.401 136.165 186.98C136.482 187.549 136.641 188.207 136.641 188.954ZM134.975 188.45C134.966 187.862 134.756 187.391 134.345 187.036C133.934 186.681 133.426 186.504 132.819 186.504C132.268 186.504 131.797 186.681 131.405 187.036C131.013 187.381 130.78 187.853 130.705 188.45H134.975ZM141.054 191.572L143.238 185.286H144.932L141.992 193H140.088L137.162 185.286H138.87L141.054 191.572ZM146.81 184.264C146.521 184.264 146.278 184.166 146.082 183.97C145.886 183.774 145.788 183.531 145.788 183.242C145.788 182.953 145.886 182.71 146.082 182.514C146.278 182.318 146.521 182.22 146.81 182.22C147.09 182.22 147.328 182.318 147.524 182.514C147.72 182.71 147.818 182.953 147.818 183.242C147.818 183.531 147.72 183.774 147.524 183.97C147.328 184.166 147.09 184.264 146.81 184.264ZM147.594 185.286V193H145.998V185.286H147.594ZM156.62 188.954C156.62 189.243 156.601 189.505 156.564 189.738H150.67C150.716 190.354 150.945 190.849 151.356 191.222C151.766 191.595 152.27 191.782 152.868 191.782C153.726 191.782 154.333 191.423 154.688 190.704H156.41C156.176 191.413 155.752 191.997 155.136 192.454C154.529 192.902 153.773 193.126 152.868 193.126C152.13 193.126 151.468 192.963 150.88 192.636C150.301 192.3 149.844 191.833 149.508 191.236C149.181 190.629 149.018 189.929 149.018 189.136C149.018 188.343 149.176 187.647 149.494 187.05C149.82 186.443 150.273 185.977 150.852 185.65C151.44 185.323 152.112 185.16 152.868 185.16C153.596 185.16 154.244 185.319 154.814 185.636C155.383 185.953 155.826 186.401 156.144 186.98C156.461 187.549 156.62 188.207 156.62 188.954ZM154.954 188.45C154.944 187.862 154.734 187.391 154.324 187.036C153.913 186.681 153.404 186.504 152.798 186.504C152.247 186.504 151.776 186.681 151.384 187.036C150.992 187.381 150.758 187.853 150.684 188.45H154.954ZM168.41 185.286L166.016 193H164.336L162.782 187.302L161.228 193H159.548L157.14 185.286H158.764L160.374 191.488L162.012 185.286H163.678L165.246 191.46L166.842 185.286H168.41ZM172.263 193.126C171.656 193.126 171.11 193.019 170.625 192.804C170.149 192.58 169.771 192.281 169.491 191.908C169.211 191.525 169.062 191.101 169.043 190.634H170.695C170.723 190.961 170.877 191.236 171.157 191.46C171.446 191.675 171.806 191.782 172.235 191.782C172.683 191.782 173.028 191.698 173.271 191.53C173.523 191.353 173.649 191.129 173.649 190.858C173.649 190.569 173.509 190.354 173.229 190.214C172.958 190.074 172.524 189.92 171.927 189.752C171.348 189.593 170.877 189.439 170.513 189.29C170.149 189.141 169.832 188.912 169.561 188.604C169.3 188.296 169.169 187.89 169.169 187.386C169.169 186.975 169.29 186.602 169.533 186.266C169.776 185.921 170.121 185.65 170.569 185.454C171.026 185.258 171.549 185.16 172.137 185.16C173.014 185.16 173.719 185.384 174.251 185.832C174.792 186.271 175.082 186.873 175.119 187.638H173.523C173.495 187.293 173.355 187.017 173.103 186.812C172.851 186.607 172.51 186.504 172.081 186.504C171.661 186.504 171.339 186.583 171.115 186.742C170.891 186.901 170.779 187.111 170.779 187.372C170.779 187.577 170.854 187.75 171.003 187.89C171.152 188.03 171.334 188.142 171.549 188.226C171.764 188.301 172.081 188.399 172.501 188.52C173.061 188.669 173.518 188.823 173.873 188.982C174.237 189.131 174.55 189.355 174.811 189.654C175.072 189.953 175.208 190.349 175.217 190.844C175.217 191.283 175.096 191.675 174.853 192.02C174.61 192.365 174.265 192.636 173.817 192.832C173.378 193.028 172.86 193.126 172.263 193.126Z" fill="#627193"/>
<path d="M45.9043 168.444V166.464L51.7903 158.04H54.7243V166.248H56.3083V168.444H54.7243V171H52.2043V168.444H45.9043ZM52.3663 160.74L48.6763 166.248H52.3663V160.74ZM59.1367 171.126C58.6807 171.126 58.3027 170.988 58.0027 170.712C57.7147 170.424 57.5707 170.07 57.5707 169.65C57.5707 169.23 57.7147 168.882 58.0027 168.606C58.3027 168.318 58.6807 168.174 59.1367 168.174C59.5807 168.174 59.9467 168.318 60.2347 168.606C60.5227 168.882 60.6667 169.23 60.6667 169.65C60.6667 170.07 60.5227 170.424 60.2347 170.712C59.9467 170.988 59.5807 171.126 59.1367 171.126ZM69.0325 161.154C68.9125 160.65 68.7025 160.272 68.4025 160.02C68.1145 159.768 67.6945 159.642 67.1425 159.642C66.3145 159.642 65.7025 159.978 65.3065 160.65C64.9225 161.31 64.7245 162.39 64.7125 163.89C65.0005 163.41 65.4205 163.038 65.9725 162.774C66.5245 162.498 67.1245 162.36 67.7725 162.36C68.5525 162.36 69.2425 162.528 69.8425 162.864C70.4425 163.2 70.9105 163.692 71.2465 164.34C71.5825 164.976 71.7505 165.744 71.7505 166.644C71.7505 167.496 71.5765 168.258 71.2285 168.93C70.8925 169.59 70.3945 170.106 69.7345 170.478C69.0745 170.85 68.2885 171.036 67.3765 171.036C66.1285 171.036 65.1445 170.76 64.4245 170.208C63.7165 169.656 63.2185 168.888 62.9305 167.904C62.6545 166.908 62.5165 165.684 62.5165 164.232C62.5165 162.036 62.8945 160.38 63.6505 159.264C64.4065 158.136 65.6005 157.572 67.2325 157.572C68.4925 157.572 69.4705 157.914 70.1665 158.598C70.8625 159.282 71.2645 160.134 71.3725 161.154H69.0325ZM67.1965 164.43C66.5605 164.43 66.0265 164.616 65.5945 164.988C65.1625 165.36 64.9465 165.9 64.9465 166.608C64.9465 167.316 65.1445 167.874 65.5405 168.282C65.9485 168.69 66.5185 168.894 67.2505 168.894C67.8985 168.894 68.4085 168.696 68.7805 168.3C69.1645 167.904 69.3565 167.37 69.3565 166.698C69.3565 166.002 69.1705 165.45 68.7985 165.042C68.4385 164.634 67.9045 164.43 67.1965 164.43ZM82.3872 171.162C81.4272 171.162 80.5632 170.952 79.7952 170.532C79.0272 170.1 78.4212 169.494 77.9772 168.714C77.5452 167.934 77.3292 167.034 77.3292 166.014C77.3292 164.994 77.5512 164.094 77.9952 163.314C78.4512 162.534 79.0692 161.934 79.8492 161.514C80.6292 161.082 81.4992 160.866 82.4592 160.866C83.4192 160.866 84.2892 161.082 85.0692 161.514C85.8492 161.934 86.4612 162.534 86.9052 163.314C87.3612 164.094 87.5892 164.994 87.5892 166.014C87.5892 167.034 87.3552 167.934 86.8872 168.714C86.4312 169.494 85.8072 170.1 85.0152 170.532C84.2352 170.952 83.3592 171.162 82.3872 171.162ZM82.3872 168.966C82.8432 168.966 83.2692 168.858 83.6652 168.642C84.0732 168.414 84.3972 168.078 84.6372 167.634C84.8772 167.19 84.9972 166.65 84.9972 166.014C84.9972 165.066 84.7452 164.34 84.2412 163.836C83.7492 163.32 83.1432 163.062 82.4232 163.062C81.7032 163.062 81.0972 163.32 80.6052 163.836C80.1252 164.34 79.8852 165.066 79.8852 166.014C79.8852 166.962 80.1192 167.694 80.5872 168.21C81.0672 168.714 81.6672 168.966 82.3872 168.966ZM98.6717 161.028V171H96.1337V169.74C95.8097 170.172 95.3837 170.514 94.8557 170.766C94.3397 171.006 93.7757 171.126 93.1637 171.126C92.3837 171.126 91.6937 170.964 91.0937 170.64C90.4937 170.304 90.0197 169.818 89.6717 169.182C89.3357 168.534 89.1677 167.766 89.1677 166.878V161.028H91.6877V166.518C91.6877 167.31 91.8857 167.922 92.2817 168.354C92.6777 168.774 93.2177 168.984 93.9017 168.984C94.5977 168.984 95.1437 168.774 95.5397 168.354C95.9357 167.922 96.1337 167.31 96.1337 166.518V161.028H98.6717ZM103.912 163.098V167.922C103.912 168.258 103.99 168.504 104.146 168.66C104.314 168.804 104.59 168.876 104.974 168.876H106.144V171H104.56C102.436 171 101.374 169.968 101.374 167.904V163.098H100.186V161.028H101.374V158.562H103.912V161.028H106.144V163.098H103.912ZM116.314 171.162C115.354 171.162 114.49 170.952 113.722 170.532C112.954 170.1 112.348 169.494 111.904 168.714C111.472 167.934 111.256 167.034 111.256 166.014C111.256 164.994 111.478 164.094 111.922 163.314C112.378 162.534 112.996 161.934 113.776 161.514C114.556 161.082 115.426 160.866 116.386 160.866C117.346 160.866 118.216 161.082 118.996 161.514C119.776 161.934 120.388 162.534 120.832 163.314C121.288 164.094 121.516 164.994 121.516 166.014C121.516 167.034 121.282 167.934 120.814 168.714C120.358 169.494 119.734 170.1 118.942 170.532C118.162 170.952 117.286 171.162 116.314 171.162ZM116.314 168.966C116.77 168.966 117.196 168.858 117.592 168.642C118 168.414 118.324 168.078 118.564 167.634C118.804 167.19 118.924 166.65 118.924 166.014C118.924 165.066 118.672 164.34 118.168 163.836C117.676 163.32 117.07 163.062 116.35 163.062C115.63 163.062 115.024 163.32 114.532 163.836C114.052 164.34 113.812 165.066 113.812 166.014C113.812 166.962 114.046 167.694 114.514 168.21C114.994 168.714 115.594 168.966 116.314 168.966ZM127.756 163.098H126.01V171H123.454V163.098H122.32V161.028H123.454V160.524C123.454 159.3 123.802 158.4 124.498 157.824C125.194 157.248 126.244 156.978 127.648 157.014V159.138C127.036 159.126 126.61 159.228 126.37 159.444C126.13 159.66 126.01 160.05 126.01 160.614V161.028H127.756V163.098ZM141.85 160.056H136.018V163.134C136.27 162.822 136.63 162.57 137.098 162.378C137.566 162.174 138.064 162.072 138.592 162.072C139.552 162.072 140.338 162.282 140.95 162.702C141.562 163.122 142.006 163.662 142.282 164.322C142.558 164.97 142.696 165.666 142.696 166.41C142.696 167.79 142.3 168.9 141.508 169.74C140.728 170.58 139.612 171 138.16 171C136.792 171 135.7 170.658 134.884 169.974C134.068 169.29 133.606 168.396 133.498 167.292H135.946C136.054 167.772 136.294 168.156 136.666 168.444C137.05 168.732 137.536 168.876 138.124 168.876C138.832 168.876 139.366 168.654 139.726 168.21C140.086 167.766 140.266 167.178 140.266 166.446C140.266 165.702 140.08 165.138 139.708 164.754C139.348 164.358 138.814 164.16 138.106 164.16C137.602 164.16 137.182 164.286 136.846 164.538C136.51 164.79 136.27 165.126 136.126 165.546H133.714V157.842H141.85V160.056ZM152.647 171.162C151.831 171.162 151.099 171.018 150.451 170.73C149.803 170.43 149.287 170.028 148.903 169.524C148.531 169.02 148.327 168.462 148.291 167.85H150.829C150.877 168.234 151.063 168.552 151.387 168.804C151.723 169.056 152.137 169.182 152.629 169.182C153.109 169.182 153.481 169.086 153.745 168.894C154.021 168.702 154.159 168.456 154.159 168.156C154.159 167.832 153.991 167.592 153.655 167.436C153.331 167.268 152.809 167.088 152.089 166.896C151.345 166.716 150.733 166.53 150.253 166.338C149.785 166.146 149.377 165.852 149.029 165.456C148.693 165.06 148.525 164.526 148.525 163.854C148.525 163.302 148.681 162.798 148.993 162.342C149.317 161.886 149.773 161.526 150.361 161.262C150.961 160.998 151.663 160.866 152.467 160.866C153.655 160.866 154.603 161.166 155.311 161.766C156.019 162.354 156.409 163.152 156.481 164.16H154.069C154.033 163.764 153.865 163.452 153.565 163.224C153.277 162.984 152.887 162.864 152.395 162.864C151.939 162.864 151.585 162.948 151.333 163.116C151.093 163.284 150.973 163.518 150.973 163.818C150.973 164.154 151.141 164.412 151.477 164.592C151.813 164.76 152.335 164.934 153.043 165.114C153.763 165.294 154.357 165.48 154.825 165.672C155.293 165.864 155.695 166.164 156.031 166.572C156.379 166.968 156.559 167.496 156.571 168.156C156.571 168.732 156.409 169.248 156.085 169.704C155.773 170.16 155.317 170.52 154.717 170.784C154.129 171.036 153.439 171.162 152.647 171.162ZM161.394 163.098V167.922C161.394 168.258 161.472 168.504 161.628 168.66C161.796 168.804 162.072 168.876 162.456 168.876H163.626V171H162.042C159.918 171 158.856 169.968 158.856 167.904V163.098H157.668V161.028H158.856V158.562H161.394V161.028H163.626V163.098H161.394ZM164.611 165.978C164.611 164.97 164.809 164.076 165.205 163.296C165.613 162.516 166.159 161.916 166.843 161.496C167.539 161.076 168.313 160.866 169.165 160.866C169.909 160.866 170.557 161.016 171.109 161.316C171.673 161.616 172.123 161.994 172.459 162.45V161.028H174.997V171H172.459V169.542C172.135 170.01 171.685 170.4 171.109 170.712C170.545 171.012 169.891 171.162 169.147 171.162C168.307 171.162 167.539 170.946 166.843 170.514C166.159 170.082 165.613 169.476 165.205 168.696C164.809 167.904 164.611 166.998 164.611 165.978ZM172.459 166.014C172.459 165.402 172.339 164.88 172.099 164.448C171.859 164.004 171.535 163.668 171.127 163.44C170.719 163.2 170.281 163.08 169.813 163.08C169.345 163.08 168.913 163.194 168.517 163.422C168.121 163.65 167.797 163.986 167.545 164.43C167.305 164.862 167.185 165.378 167.185 165.978C167.185 166.578 167.305 167.106 167.545 167.562C167.797 168.006 168.121 168.348 168.517 168.588C168.925 168.828 169.357 168.948 169.813 168.948C170.281 168.948 170.719 168.834 171.127 168.606C171.535 168.366 171.859 168.03 172.099 167.598C172.339 167.154 172.459 166.626 172.459 166.014ZM179.798 162.576C180.122 162.048 180.542 161.634 181.058 161.334C181.586 161.034 182.186 160.884 182.858 160.884V163.53H182.192C181.4 163.53 180.8 163.716 180.392 164.088C179.996 164.46 179.798 165.108 179.798 166.032V171H177.278V161.028H179.798V162.576ZM188.191 171.162C187.375 171.162 186.643 171.018 185.995 170.73C185.347 170.43 184.831 170.028 184.447 169.524C184.075 169.02 183.871 168.462 183.835 167.85H186.373C186.421 168.234 186.607 168.552 186.931 168.804C187.267 169.056 187.681 169.182 188.173 169.182C188.653 169.182 189.025 169.086 189.289 168.894C189.565 168.702 189.703 168.456 189.703 168.156C189.703 167.832 189.535 167.592 189.199 167.436C188.875 167.268 188.353 167.088 187.633 166.896C186.889 166.716 186.277 166.53 185.797 166.338C185.329 166.146 184.921 165.852 184.573 165.456C184.237 165.06 184.069 164.526 184.069 163.854C184.069 163.302 184.225 162.798 184.537 162.342C184.861 161.886 185.317 161.526 185.905 161.262C186.505 160.998 187.207 160.866 188.011 160.866C189.199 160.866 190.147 161.166 190.855 161.766C191.563 162.354 191.953 163.152 192.025 164.16H189.613C189.577 163.764 189.409 163.452 189.109 163.224C188.821 162.984 188.431 162.864 187.939 162.864C187.483 162.864 187.129 162.948 186.877 163.116C186.637 163.284 186.517 163.518 186.517 163.818C186.517 164.154 186.685 164.412 187.021 164.592C187.357 164.76 187.879 164.934 188.587 165.114C189.307 165.294 189.901 165.48 190.369 165.672C190.837 165.864 191.239 166.164 191.575 166.572C191.923 166.968 192.103 167.496 192.115 168.156C192.115 168.732 191.953 169.248 191.629 169.704C191.317 170.16 190.861 170.52 190.261 170.784C189.673 171.036 188.983 171.162 188.191 171.162Z" fill="#071440"/>
<path d="M74.2727 114L76.5791 120.655H84.0427L78.0045 124.767L80.3109 131.422L74.2727 127.309L68.2346 131.422L70.5409 124.767L64.5028 120.655H71.9664L74.2727 114Z" fill="#FBB040"/>
<path d="M97.3862 114L99.6926 120.655H107.156L101.118 124.767L103.424 131.422L97.3862 127.309L91.348 131.422L93.6544 124.767L87.6162 120.655H95.0798L97.3862 114Z" fill="#FBB040"/>
<path d="M120.5 114L122.807 120.655H130.27L124.232 124.767L126.538 131.422L120.5 127.309L114.462 131.422L116.768 124.767L110.73 120.655H118.194L120.5 114Z" fill="#FBB040"/>
<path d="M143.614 114L145.92 120.655H153.384L147.346 124.767L149.652 131.422L143.614 127.309L137.576 131.422L139.882 124.767L133.844 120.655H141.307L143.614 114Z" fill="#FBB040"/>
<path d="M166.727 114L169.034 120.655H176.497L170.459 124.767L172.765 131.422L166.727 127.309L160.689 131.422L162.996 124.767L156.957 120.655H164.421L166.727 114Z" fill="#FBB040"/>
<path opacity="0.5" d="M169.034 120.655L166.727 114V127.309L172.765 131.422L170.459 124.767L176.497 120.655H169.034Z" fill="white"/>
<path d="M82.378 64.0117C82.9032 63.3433 83.309 62.6988 83.309 61.911C83.309 60.7174 82.2587 59.9296 81.0651 59.9296C79.8954 59.9296 78.9644 60.7174 78.7018 61.911L77.1263 61.3858C77.5321 59.2851 79.1076 57.9722 81.2083 57.9722C83.4523 57.9722 85.2665 59.5477 85.2665 61.7678C85.2665 62.9613 84.7413 64.1311 83.8342 65.0621C82.1393 67.0434 82.1393 67.0434 80.2773 69.1441H85.1472V70.839H77.1263V70.0512L82.378 64.0117Z" fill="#456474"/>
<path d="M77.2696 79.7669V73.3215H91.3301C91.4494 74.2525 91.5926 75.1597 91.5926 76.0668C91.5926 85.9258 83.5956 93.8034 73.8799 93.8034C63.997 93.8034 56 85.8064 56 76.0906C56 66.3749 63.997 58.354 73.7366 58.354V64.6561C67.4345 64.6561 62.3021 69.7885 62.3021 76.0668C62.3021 82.3689 67.4345 87.5013 73.7366 87.5013C78.7258 87.5013 83.0466 84.207 84.6221 79.743" fill="#456474"/>
<path d="M104.579 75.3031C104.579 70.5765 104.842 68.7384 105.629 67.5686C106.68 66.1125 108.518 65.3247 111.024 65.3247C113.125 65.3247 114.963 65.9692 115.87 67.0196C116.658 67.8074 116.921 69.0009 116.921 70.6958V71.8894H112.982C112.982 69.9081 112.839 69.5261 112.576 69.1442C112.313 68.619 111.669 68.3564 110.881 68.3564C110.093 68.3564 109.449 68.7384 109.186 69.2874C108.804 70.0752 108.661 71.5313 108.661 75.4702C108.661 78.6212 108.804 80.4593 109.067 81.2471C109.329 81.9155 109.974 82.2975 110.762 82.2975C112.337 82.2975 112.743 81.5097 112.862 78.6212H116.801C116.801 81.1277 116.682 82.1781 116.133 83.0852C115.345 84.5175 113.507 85.3053 110.762 85.3053C107.611 85.3053 105.629 84.1356 104.985 81.7723C104.698 80.6742 104.579 78.4541 104.579 75.3031Z" fill="#456474"/>
<path d="M119.14 65.5869H125.323C128.212 65.5869 128.856 65.7063 129.787 66.5179C130.718 67.3057 131.1 68.4993 131.1 70.3135C131.1 71.889 130.837 73.0826 130.193 73.8704C129.668 74.5388 128.999 74.9207 127.686 75.1833C130.312 75.4459 131.1 76.7589 131.243 79.9099C131.243 80.4351 131.243 81.4854 131.363 82.7984C131.363 83.7294 131.482 83.8487 131.625 84.6365H127.424C127.304 83.4668 127.304 83.3236 127.304 80.9603C127.304 78.7163 127.161 77.5466 126.636 77.0214C126.373 76.6156 125.968 76.6156 124.917 76.6156H122.936V84.6365H119.021L119.14 65.5869ZM124.679 73.9897C126.517 73.9897 127.161 73.202 127.161 71.2445C127.161 70.1941 126.899 69.2631 126.373 68.8812C125.992 68.6186 125.705 68.4993 124.798 68.4993H123.079V73.8704L124.679 73.9897Z" fill="#456474"/>
<path d="M133.726 75.1598C133.726 70.6958 133.869 69.1202 134.657 67.8073C135.564 66.2318 137.545 65.3008 140.171 65.3008C143.203 65.3008 145.16 66.3511 145.948 68.4518C146.354 69.5022 146.473 71.4597 146.473 75.1359C146.473 79.1941 146.354 81.0561 145.686 82.1064C144.755 83.9445 142.797 84.8517 140.028 84.8517C137.283 84.8517 135.421 84.0639 134.514 82.3451C133.869 81.1993 133.726 79.6476 133.726 75.1598ZM140.147 82.1303C141.341 82.1303 141.986 81.6051 142.248 80.4115C142.391 79.6238 142.511 77.2605 142.511 74.4914C142.511 71.6029 142.391 69.8841 142.105 69.2396C141.842 68.5712 141.055 68.1893 140.124 68.1893C139.073 68.1893 138.285 68.7144 138.023 69.5022C137.903 70.29 137.76 72.2474 137.76 75.2791C137.76 77.7857 137.88 79.4805 138.023 80.2683C138.19 81.6051 138.978 82.1303 140.147 82.1303Z" fill="#456474"/>
<path d="M147.906 65.5869H151.845L153.158 72.5336C153.563 75.0401 153.683 77.3795 153.945 81.7242C154.733 75.804 154.996 74.2285 155.378 72.5336L156.953 65.5869H161.417L162.849 72.5336C163.518 75.6846 163.637 77.9047 163.9 81.7242C164.162 78.4299 164.425 76.0666 165.093 72.5336L166.287 65.5869H169.82L166.024 84.7559H161.68L159.698 75.8279C159.436 74.2523 159.03 70.6954 158.911 68.738C158.385 73.0826 158.242 73.6078 157.86 75.8279L156.022 84.7559H151.558L147.906 65.5869Z" fill="#456474"/>
<path d="M171.42 65.5869H176.791C179.942 65.5869 180.849 65.7063 181.78 66.5179C182.95 67.425 183.618 69.0006 183.881 72.0323C184 73.2258 184 74.8014 184 76.0904C184 79.5041 183.737 81.2229 183.212 82.3926C182.424 83.9681 180.586 84.8991 178.223 84.8991H171.539L171.42 65.5869ZM177.053 81.7242C178.366 81.7242 179.154 81.4616 179.417 80.6738C179.679 79.886 179.822 78.8357 179.822 75.6846C179.822 72.271 179.679 70.8148 179.417 69.7645C179.154 68.9767 178.366 68.5709 177.197 68.5709H175.478V81.7003L177.053 81.7242Z" fill="#456474"/>
<path d="M98.945 58.0913H97.6321V93.4214H98.945V58.0913Z" fill="#456474"/>
</svg>
