<svg width="254" height="160" viewBox="0 0 254 160" fill="none" xmlns="http://www.w3.org/2000/svg">
<rect width="254" height="160" rx="10" fill="white"/>
<g filter="url(#filter0_d_505_196)">
<path d="M26 127.421C40.0347 110.584 65.0968 103.68 87.6526 122.964C113.717 145.247 144.794 130.887 163.841 105.632C185.896 76.3899 212.963 85.8246 228 95.7284" stroke="#3C50E0" stroke-width="3" stroke-linecap="round" stroke-linejoin="round"/>
</g>
<path d="M34.88 29.26C34.88 30.64 34.08 31.62 32.3 31.62H29.78V26.96H32.3C34.08 26.96 34.88 27.86 34.88 29.26ZM27.5 25.1V39H29.78V33.44H31.52L34.72 39H37.44L34 33.24C36.34 32.66 37.22 30.9 37.22 29.26C37.22 27 35.6 25.1 32.3 25.1H27.5ZM44.5767 29.72C46.2767 29.72 47.6167 30.8 47.6567 32.5H41.5567C41.7967 30.76 43.0367 29.72 44.5767 29.72ZM49.7367 35.72H47.2767C46.8567 36.58 46.0767 37.26 44.6767 37.26C42.9967 37.26 41.6967 36.16 41.5367 34.34H49.9567C50.0167 33.96 50.0367 33.6 50.0367 33.22C50.0367 29.98 47.8167 27.8 44.6767 27.8C41.4167 27.8 39.1767 30.02 39.1767 33.48C39.1767 36.94 41.5167 39.18 44.6767 39.18C47.3767 39.18 49.1167 37.64 49.7367 35.72ZM59.9005 39H62.1605V32.5C62.1605 29.42 60.2205 27.8 57.6405 27.8C56.3205 27.8 55.1005 28.34 54.3605 29.24V27.98H52.0805V39H54.3605V32.84C54.3605 30.82 55.4605 29.78 57.1405 29.78C58.8005 29.78 59.9005 30.82 59.9005 32.84V39ZM65.2288 35.94C65.2288 38.18 66.4488 39 68.4088 39H70.2088V37.1H68.8088C67.8488 37.1 67.5288 36.76 67.5288 35.94V29.84H70.2088V27.98H67.5288V25.24H65.2288V27.98H63.9288V29.84H65.2288V35.94ZM77.4655 35.94C77.4655 38.18 78.6855 39 80.6455 39H82.4455V37.1H81.0455C80.0855 37.1 79.7655 36.76 79.7655 35.94V29.84H82.4455V27.98H79.7655V25.24H77.4655V27.98H76.1655V29.84H77.4655V35.94ZM84.3469 39H86.6269V32.84C86.6269 30.82 87.7269 29.78 89.4069 29.78C91.0669 29.78 92.1669 30.82 92.1669 32.84V39H94.4269V32.5C94.4269 29.42 92.5069 27.8 90.0469 27.8C88.6269 27.8 87.3869 28.34 86.6269 29.26V24.2H84.3469V39ZM97.1352 39H99.4152V27.98H97.1352V39ZM98.2952 26.52C99.0952 26.52 99.7352 25.88 99.7352 25.06C99.7352 24.24 99.0952 23.6 98.2952 23.6C97.4752 23.6 96.8352 24.24 96.8352 25.06C96.8352 25.88 97.4752 26.52 98.2952 26.52ZM110.429 35.92C110.309 31.94 104.089 33.18 104.089 30.96C104.089 30.22 104.729 29.72 105.949 29.72C107.189 29.72 107.929 30.38 108.009 31.34H110.289C110.169 29.14 108.529 27.8 106.029 27.8C103.429 27.8 101.789 29.22 101.789 30.98C101.789 35.02 108.189 33.78 108.189 35.94C108.189 36.7 107.489 37.26 106.169 37.26C104.909 37.26 104.049 36.52 103.969 35.62H101.609C101.709 37.62 103.569 39.18 106.209 39.18C108.809 39.18 110.429 37.78 110.429 35.92ZM133.308 39H135.568V32.5C135.568 29.42 133.608 27.8 131.028 27.8C129.428 27.8 127.868 28.64 127.188 29.98C126.428 28.54 124.968 27.8 123.228 27.8C121.908 27.8 120.708 28.34 119.968 29.24V27.98H117.688V39H119.968V32.84C119.968 30.82 121.068 29.78 122.748 29.78C124.408 29.78 125.508 30.82 125.508 32.84V39H127.768V32.84C127.768 30.82 128.868 29.78 130.548 29.78C132.208 29.78 133.308 30.82 133.308 32.84V39ZM148.769 33.48C148.769 30.02 146.289 27.8 143.149 27.8C140.009 27.8 137.529 30.02 137.529 33.48C137.529 36.94 139.909 39.18 143.049 39.18C146.209 39.18 148.769 36.94 148.769 33.48ZM139.849 33.48C139.849 30.98 141.389 29.78 143.109 29.78C144.809 29.78 146.429 30.98 146.429 33.48C146.429 35.98 144.749 37.2 143.049 37.2C141.329 37.2 139.849 35.98 139.849 33.48ZM158.643 39H160.903V32.5C160.903 29.42 158.963 27.8 156.383 27.8C155.063 27.8 153.843 28.34 153.103 29.24V27.98H150.823V39H153.103V32.84C153.103 30.82 154.203 29.78 155.883 29.78C157.543 29.78 158.643 30.82 158.643 32.84V39ZM163.971 35.94C163.971 38.18 165.191 39 167.151 39H168.951V37.1H167.551C166.591 37.1 166.271 36.76 166.271 35.94V29.84H168.951V27.98H166.271V25.24H163.971V27.98H162.671V29.84H163.971V35.94ZM170.852 39H173.132V32.84C173.132 30.82 174.232 29.78 175.912 29.78C177.572 29.78 178.672 30.82 178.672 32.84V39H180.932V32.5C180.932 29.42 179.012 27.8 176.552 27.8C175.132 27.8 173.892 28.34 173.132 29.26V24.2H170.852V39Z" fill="#627193"/>
<path d="M34.31 82.61H36.23V80.18C40.61 79.88 43.01 77.03 43.01 73.97C43.01 69.53 39.35 68.72 36.23 67.91V62.24C37.4 62.6 38.12 63.5 38.24 64.67H42.77C42.5 61.1 39.98 59.09 36.23 58.79V56.36H34.31V58.79C30.41 59.09 27.59 61.4 27.59 64.94C27.59 69.38 31.22 70.25 34.31 71.03V76.76C32.93 76.46 32.21 75.53 32.09 74.15H27.59C27.68 77.75 30.44 79.82 34.31 80.15V82.61ZM38.66 74.15C38.66 75.5 37.76 76.55 36.23 76.82V71.57C37.64 72.05 38.66 72.74 38.66 74.15ZM31.97 64.73C31.97 63.2 32.93 62.36 34.31 62.15V67.34C32.93 66.86 31.97 66.14 31.97 64.73ZM50.4289 68.42C48.2689 69.32 46.9189 71.21 46.9189 73.79C46.9189 77.96 50.3389 80.48 54.8089 80.48C59.3089 80.48 62.7289 77.96 62.7289 73.79C62.7289 71.24 61.3789 69.35 59.2189 68.42C60.9289 67.55 62.1889 65.9 62.1889 63.59C62.1889 60.47 59.7889 57.71 54.8089 57.71C49.8289 57.71 47.4289 60.44 47.4289 63.59C47.4289 65.96 48.6289 67.49 50.4289 68.42ZM54.8089 67.19C52.9189 67.19 51.5389 66.02 51.5389 64.22C51.5389 62.18 52.8589 61.1 54.8089 61.1C56.8189 61.1 58.1089 62.21 58.1089 64.19C58.1089 65.99 56.7289 67.19 54.8089 67.19ZM54.8089 70.25C57.0589 70.25 58.6189 71.45 58.6189 73.61C58.6189 75.53 57.2089 77 54.8089 77C52.4089 77 50.9689 75.56 50.9689 73.61C50.9689 71.39 52.6189 70.25 54.8089 70.25ZM64.3662 84.32H67.0962L70.8162 75.38H66.3762L64.3662 84.32ZM72.7927 68.78C72.7927 75.17 74.7127 79.94 80.8927 79.94C87.0727 79.94 88.9927 75.17 88.9927 68.78C88.9927 62.45 87.0727 57.71 80.8927 57.71C74.7127 57.71 72.7927 62.45 72.7927 68.78ZM84.8527 68.78C84.8527 72.68 84.4327 76.04 80.8927 76.04C77.3527 76.04 76.9327 72.68 76.9327 68.78C76.9327 65.03 77.3527 61.61 80.8927 61.61C84.4327 61.61 84.8527 65.03 84.8527 68.78ZM91.7373 68.78C91.7373 75.17 93.6573 79.94 99.8373 79.94C106.017 79.94 107.937 75.17 107.937 68.78C107.937 62.45 106.017 57.71 99.8373 57.71C93.6573 57.71 91.7373 62.45 91.7373 68.78ZM103.797 68.78C103.797 72.68 103.377 76.04 99.8373 76.04C96.2973 76.04 95.8773 72.68 95.8773 68.78C95.8773 65.03 96.2973 61.61 99.8373 61.61C103.377 61.61 103.797 65.03 103.797 68.78ZM110.682 68.78C110.682 75.17 112.602 79.94 118.782 79.94C124.962 79.94 126.882 75.17 126.882 68.78C126.882 62.45 124.962 57.71 118.782 57.71C112.602 57.71 110.682 62.45 110.682 68.78ZM122.742 68.78C122.742 72.68 122.322 76.04 118.782 76.04C115.242 76.04 114.822 72.68 114.822 68.78C114.822 65.03 115.242 61.61 118.782 61.61C122.322 61.61 122.742 65.03 122.742 68.78Z" fill="#00005C"/>
<defs>
<filter id="filter0_d_505_196" x="4.49997" y="68.5" width="245" height="90.9995" filterUnits="userSpaceOnUse" color-interpolation-filters="sRGB">
<feFlood flood-opacity="0" result="BackgroundImageFix"/>
<feColorMatrix in="SourceAlpha" type="matrix" values="0 0 0 0 0 0 0 0 0 0 0 0 0 0 0 0 0 0 127 0" result="hardAlpha"/>
<feOffset dy="4"/>
<feGaussianBlur stdDeviation="10"/>
<feComposite in2="hardAlpha" operator="out"/>
<feColorMatrix type="matrix" values="0 0 0 0 0.235294 0 0 0 0 0.313726 0 0 0 0 0.878431 0 0 0 0.3 0"/>
<feBlend mode="normal" in2="BackgroundImageFix" result="effect1_dropShadow_505_196"/>
<feBlend mode="normal" in="SourceGraphic" in2="effect1_dropShadow_505_196" result="shape"/>
</filter>
</defs>
</svg>
