<svg width="120" height="120" viewBox="0 0 120 120" fill="none" xmlns="http://www.w3.org/2000/svg">
<circle cx="60" cy="60" r="60" fill="#3C50E0"/>
<path d="M24.5709 46.428C24.5709 49.614 26.8029 51.126 29.4309 51.126C32.0409 51.126 34.3449 49.614 34.3449 46.428V38.49H32.2929V46.464C32.2929 48.408 31.1949 49.326 29.4489 49.326C27.7209 49.326 26.6229 48.408 26.6229 46.464V38.49H24.5709V46.428ZM44.9727 38.472V47.796L38.7987 38.472H36.7467V51H38.7987V41.658L44.9727 51H47.0247V38.472H44.9727ZM49.4493 51H51.5013V38.49H49.4493V51ZM53.2774 40.164H56.6254V51H58.6774V40.164H62.0074V38.49H53.2774V40.164ZM76.4474 38.472V47.796L70.2734 38.472H68.2214V51H70.2734V41.658L76.4474 51H78.4994V38.472H76.4474ZM93.02 44.718C93.02 40.974 90.194 38.328 86.63 38.328C83.102 38.328 80.24 40.974 80.24 44.718C80.24 48.48 83.102 51.126 86.63 51.126C90.194 51.126 93.02 48.48 93.02 44.718ZM82.346 44.718C82.346 41.892 84.146 40.128 86.63 40.128C89.114 40.128 90.914 41.892 90.914 44.718C90.914 47.544 89.114 49.344 86.63 49.344C84.146 49.344 82.346 47.544 82.346 44.718ZM96.8933 49.812C96.8933 49.074 96.3173 48.498 95.5973 48.498C94.8593 48.498 94.2833 49.074 94.2833 49.812C94.2833 50.55 94.8593 51.126 95.5973 51.126C96.3173 51.126 96.8933 50.55 96.8933 49.812Z" fill="white"/>
<path d="M41.1412 63.736V67.576H52.0852L43.5092 87H48.0533L56.5653 67.064V63.736H41.1412ZM74.4485 87H79.1845L71.1525 64.632H65.9365L57.9045 87H62.6085L64.0805 82.744H72.9765L74.4485 87ZM71.7605 79.16H65.2965L68.5285 69.816L71.7605 79.16Z" fill="white"/>
</svg>
